<?xml version="1.0" standalone="no"?>
<!DOCTYPE svg PUBLIC "-//W3C//DTD SVG 20010904//EN"
 "http://www.w3.org/TR/2001/REC-SVG-20010904/DTD/svg10.dtd">
<svg version="1.0" xmlns="http://www.w3.org/2000/svg"
 width="144.000000pt" height="144.000000pt" viewBox="0 0 144.000000 144.000000"
 preserveAspectRatio="xMidYMid meet">
<metadata>
Created by potrace 1.14, written by Peter Selinger 2001-2017
</metadata>
<g transform="translate(0.000000,144.000000) scale(0.100000,-0.100000)"
fill="#000000" stroke="none">
<path d="M555 1255 c-33 -7 -63 -11 -67 -9 -4 3 -9 0 -12 -5 -3 -5 -18 -12
-33 -16 -38 -9 -133 -54 -162 -76 -13 -11 -28 -16 -35 -12 -6 3 -8 3 -4 -1 3
-4 -2 -16 -13 -27 -10 -10 -19 -24 -19 -30 0 -14 99 -109 113 -109 6 0 7 -3 4
-6 -4 -4 2 -14 12 -23 79 -69 173 -154 213 -192 26 -26 48 -44 48 -41 0 3 18
-14 41 -36 22 -23 43 -42 46 -42 3 0 26 -20 52 -44 66 -64 115 -106 124 -106
4 0 7 -7 7 -15 0 -8 5 -15 11 -15 5 0 24 -13 42 -30 28 -26 28 -33 1 -29 -4 0
-10 -4 -13 -10 -4 -5 -22 -12 -42 -14 -19 -2 -39 -6 -44 -9 -21 -11 -173 -6
-235 9 -36 8 -69 16 -75 17 -29 5 -148 68 -170 90 -14 14 -25 22 -25 19 0 -3
-8 3 -18 14 -29 33 -48 38 -124 33 -77 -5 -85 -12 -65 -54 9 -19 117 -140 117
-131 0 3 19 -9 42 -25 46 -33 107 -63 178 -86 25 -8 52 -18 60 -21 8 -3 29 -7
45 -8 17 -2 50 -6 75 -10 99 -14 206 -6 320 24 41 11 78 17 84 14 5 -3 6 -1 2
5 -3 6 6 13 23 17 16 3 50 19 75 36 26 16 49 29 52 29 12 0 39 37 39 53 0 19
-82 97 -102 97 -7 0 -13 5 -13 11 0 10 -54 64 -107 107 -15 12 -24 24 -21 27
3 3 60 6 127 7 76 0 121 5 121 11 0 6 3 7 6 4 4 -4 2 -12 -4 -20 -21 -25 -8
-59 41 -103 27 -24 53 -44 58 -44 10 0 62 107 62 127 0 7 3 13 7 13 4 0 6 42
6 93 l-1 92 -74 0 -74 0 -2 -63 c-1 -34 -6 -67 -12 -73 -7 -7 -8 1 -4 28 4 21
6 55 3 75 l-4 36 -209 0 -209 0 0 -24 c0 -23 -1 -23 -34 9 -18 17 -60 55 -91
82 -32 28 -81 71 -109 97 -28 26 -64 58 -80 71 l-29 25 38 16 c54 23 96 28
210 28 145 -1 147 -1 139 -14 -4 -7 -3 -8 5 -4 14 9 121 -21 121 -34 0 -5 6
-7 13 -4 7 2 23 -5 35 -16 12 -11 22 -18 22 -15 0 10 54 -31 94 -71 20 -20 36
-40 36 -44 0 -5 23 -8 50 -6 28 1 50 -2 50 -6 0 -5 7 -5 16 0 9 5 25 7 35 5
15 -4 19 0 19 21 0 49 -107 177 -181 216 -13 7 -26 16 -29 20 -8 12 -147 68
-185 76 -19 3 -35 9 -35 13 0 17 -302 22 -375 6z"/>
<path d="M93 954 c-9 -15 -24 -48 -33 -75 -9 -27 -21 -45 -26 -41 -4 4 -3 0 4
-9 6 -9 9 -18 6 -21 -8 -9 -8 -129 0 -155 6 -19 13 -21 61 -20 32 2 55 -2 55
-8 0 -5 4 -4 9 3 4 8 12 12 16 10 12 -5 26 40 15 47 -15 9 -11 84 5 130 20 56
19 71 -11 94 -14 11 -23 25 -19 30 3 7 0 8 -9 5 -9 -3 -20 3 -28 15 -17 27
-24 26 -45 -5z"/>
</g>
</svg>
